<svg width="16" height="16" viewBox="0 0 16 16" fill="none" xmlns="http://www.w3.org/2000/svg">
<path d="M9.76248 8L15.1375 2.6375C15.3729 2.40212 15.5051 2.08288 15.5051 1.75C15.5051 1.41713 15.3729 1.09788 15.1375 0.862503C14.9021 0.627123 14.5829 0.494888 14.25 0.494888C13.9171 0.494888 13.5979 0.627123 13.3625 0.862503L7.99998 6.2375L2.63748 0.862503C2.40211 0.627123 2.08286 0.494888 1.74998 0.494888C1.41711 0.494888 1.09786 0.627123 0.862485 0.862503C0.627105 1.09788 0.49487 1.41713 0.49487 1.75C0.49487 2.08288 0.627105 2.40212 0.862485 2.6375L6.23748 8L0.862485 13.3625C0.745324 13.4787 0.652332 13.617 0.588871 13.7693C0.52541 13.9216 0.492737 14.085 0.492737 14.25C0.492737 14.415 0.52541 14.5784 0.588871 14.7307C0.652332 14.883 0.745324 15.0213 0.862485 15.1375C0.978688 15.2547 1.11694 15.3477 1.26926 15.4111C1.42159 15.4746 1.58497 15.5073 1.74998 15.5073C1.915 15.5073 2.07838 15.4746 2.23071 15.4111C2.38303 15.3477 2.52128 15.2547 2.63748 15.1375L7.99998 9.7625L13.3625 15.1375C13.4787 15.2547 13.6169 15.3477 13.7693 15.4111C13.9216 15.4746 14.085 15.5073 14.25 15.5073C14.415 15.5073 14.5784 15.4746 14.7307 15.4111C14.883 15.3477 15.0213 15.2547 15.1375 15.1375C15.2546 15.0213 15.3476 14.883 15.4111 14.7307C15.4746 14.5784 15.5072 14.415 15.5072 14.25C15.5072 14.085 15.4746 13.9216 15.4111 13.7693C15.3476 13.617 15.2546 13.4787 15.1375 13.3625L9.76248 8Z" fill="#454545"/>
</svg>
